<svg width="113" height="36" viewBox="0 0 113 36" fill="none" xmlns="http://www.w3.org/2000/svg">
<path d="M12.28 30.12C13.24 30.12 14.16 29.88 15.08 29.44C17 28.52 18.8 26.64 20.36 23.8C20.4 23.8 20.4 23.76 20.4 23.72C21.4 23.92 22.36 24.12 23.28 24.32C21.28 29.04 18.64 31.88 16.6 33.28C15.92 33.08 15.08 32.84 14.52 32.68C13.36 32.4 10.08 31.4 9.8 32.68C9.52 34 13.32 36.44 17.64 34.52C18.6 34.8 20.16 35.2 21.72 35.2C22.64 35.2 23.6 35.04 24.4 34.64C24.4 34.64 25.84 33.92 25.4 33.24C24.88 32.44 23.8 33.36 23.32 33.72C23.32 33.72 22.64 34.36 21.56 34.32C20.6 34.28 19.6 34.12 18.8 33.92C21.52 32.32 23.2 30 24.4 27.52C27.24 27.92 29.64 27.72 31.6 27.16C32.64 27.8 33.36 28.52 33.76 29.28C34.12 30 34.24 30.76 34.12 31.6C34 32.36 33.4 33 33.4 33C33.04 33.28 32.52 33.96 33.08 34.28C33.48 34.52 33.84 33.84 33.92 33.68C33.96 33.6 34 33.48 34.04 33.36C34.72 31.76 34.76 30.32 34.12 29.12C33.72 28.28 33 27.6 32.08 27C40.08 24.24 40.96 15 40.96 15C41.8 8.88 37.56 5.32 34.08 3.44C35.36 2.28 36.76 1.8 38.6 1.84C38.96 1.84 39.32 1.88 39.6 1.96C40.36 2.24 40.64 2.96 40.64 2.96C40.88 3.52 41.32 4.76 42.2 4.4C42.92 4.16 42.24 3 42.08 2.76C41.84 2.36 40.88 0.999998 38.6 0.959998C37.52 0.919999 36.6 1.08 35.72 1.4C34.84 1.72 34.04 2.28 33.24 3C31.32 2.08 29.8 1.72 29.8 1.72C28.16 1.24 25.96 0.999998 23.52 1.16C22.6 1.2 19.32 1.36 15.52 2.08C12.92 2.6 10.6 3.24 8.64 4.08C6.2 5.08 4.28 6.32 2.96 7.8C1.32 9.6 0.56 11.76 0.8 14.2C1 16.72 2.8 18.48 5.44 19.8C5.28 22.6 5.8 25 6.56 26.36C7.6 28.24 8.88 29.16 9.72 29.56C10.56 29.92 11.32 30.08 12.28 30.12ZM11.8 34C11.8 34 10.48 33.48 10.52 32.88C10.56 32.28 13.72 33.36 15.6 33.84C15.16 34.08 14.8 34.2 14.48 34.24C14.48 34.24 13.04 34.52 11.8 34ZM1.2 14.16C1 11.84 1.68 9.8 3.24 8.08C4.52 6.64 6.4 5.44 8.8 4.44C10.72 3.64 13.04 2.96 15.6 2.48C17 2.2 18.32 2.04 19.48 1.88C16.32 2.8 13.08 4.56 10.4 7.68C7.12 11.52 5.76 15.76 5.48 19.36C3.04 18.12 1.4 16.48 1.2 14.16ZM14.68 28.68C13.36 29.28 12 29.4 10.6 28.96C9.88 28.68 7.88 27.76 6.92 25.2C6.52 24.12 6.48 22.36 6.8 20.4C10.12 21.72 14.4 22.56 18.64 23.4C18.92 23.44 19.2 23.52 19.52 23.56C18.4 25.52 16.76 27.68 14.68 28.68ZM20.84 9.2C21.16 9.36 21.52 9.6 21.84 10.08C22.68 11.24 23.24 13.84 21.32 19.6C21.32 19.64 20.76 21.28 19.72 23.2C19.36 23.12 19.04 23.08 18.72 23C14.48 22.16 10.16 21.32 6.84 19.96C7.48 16.24 9.28 11.76 12 8.76C16.28 4.04 22.32 0.759998 29.48 2.64C29.48 2.64 30.8 2.96 32.48 3.88C31.92 4.52 31.36 5.32 30.8 6.24C30.56 6.64 27.08 11.96 24.56 20.72C24.2 21.88 23.84 22.96 23.4 23.96C22.52 23.76 21.56 23.56 20.6 23.36C21.6 21.48 22.12 19.96 22.16 19.88C23.04 17.2 23.52 14.92 23.48 13.12C23.48 11.64 23.16 10.44 22.56 9.56C21.64 8.24 20.36 8.12 20.16 8.12C18.12 7.96 16.24 9.12 14.72 11.48C13.64 13.2 13.16 14.92 13.12 15C13.04 15.28 12.96 15.68 12.96 15.68C12.88 16.12 12.84 16.48 12.84 16.48C12.84 16.48 12.56 18 13.4 18.08C14.4 18.12 14.24 16.88 14.24 16.28C14.24 16.28 14.08 14.96 14.4 14.12C15.12 12.24 17 8.76 20.12 9C20.36 9.04 20.56 9.08 20.84 9.2ZM24.68 26.88C25 26.2 25.28 25.52 25.52 24.88C26.48 25.12 27.36 25.36 28.2 25.64C28.92 25.88 29.6 26.16 30.24 26.44C28.68 26.96 26.84 27.16 24.68 26.88ZM38.52 14.84C38.52 14.84 37.28 23.52 30.76 26.24C29.32 25.52 27.6 24.96 25.68 24.48C25.76 24.28 25.84 24.04 25.92 23.84C26.84 21.24 29.2 11.24 30.96 7.8C31.72 6.36 32.48 5.2 33.24 4.32C36.08 6.04 39.32 9.28 38.52 14.84ZM51.9659 19.88C51.7659 19.8 51.4859 19.88 51.4059 20.12C51.3659 20.16 50.1259 22.92 48.4859 25.48C46.6459 28.36 45.0059 29.88 43.7659 29.8C42.8459 29.72 42.4059 28.6 43.2459 25.92C44.0459 23.24 49.0859 8.36 50.0859 5.36C50.2059 5.12 50.0059 4.84 49.7259 4.84H48.2459C47.9259 4.84 47.6459 5.04 47.5659 5.32C43.3259 17.96 41.9259 21.96 40.8859 25.56C40.2859 27.56 40.5259 29.32 41.1659 30.08C42.6459 31.96 45.1259 30.4 45.1259 30.4C46.3659 29.8 47.7259 28.32 49.2459 25.96C50.9259 23.32 52.1659 20.48 52.2059 20.48C52.2859 20.24 52.2059 20 51.9659 19.88ZM67.9216 19.88C67.6816 19.8 67.4416 19.88 67.3216 20.12C67.3216 20.16 66.0816 22.92 64.4416 25.48C62.6016 28.36 60.9216 29.88 59.7216 29.8C58.8016 29.72 58.3616 28.6 59.1616 25.92C59.9216 23.36 61.9216 17.56 62.4816 15.96C62.5616 15.72 62.4016 15.52 62.2016 15.52H60.6416C60.2816 15.52 60.0016 15.72 59.8816 16.04C59.7616 16.48 59.5616 17 59.3616 17.56C59.2016 16.52 58.6416 15.6 57.2016 15.52C53.6816 15.32 51.4016 19.96 51.4016 19.96C49.0016 24.32 48.6816 30.6 51.9216 31C53.8416 31.24 55.4816 29.28 56.4816 27.64C56.4816 28.72 56.7216 29.6 57.0816 30.08C58.6016 31.96 61.0816 30.4 61.0816 30.4H61.0416C62.2816 29.8 63.6816 28.32 65.1616 25.96C66.8816 23.32 68.1216 20.48 68.1216 20.48C68.2416 20.24 68.1216 20 67.9216 19.88ZM52.2016 30.12C50.4816 29.68 52.5616 23.16 52.5616 23.16C54.4416 16.68 57.1616 16.36 57.1616 16.36C59.3616 16.16 58.3616 20.52 58.1616 21.28C57.7616 22.48 57.3616 23.72 57.0016 24.92C56.2816 26.56 53.8416 30.56 52.2016 30.12ZM83.2209 19.88C82.9809 19.8 82.7409 19.88 82.6609 20.12C82.6209 20.16 81.3809 22.92 79.7409 25.48C77.9009 28.36 76.2609 29.88 75.0209 29.8C74.1009 29.72 73.6609 28.6 74.4609 25.92C74.8609 24.72 75.4609 22.8 76.1009 20.92C76.1009 20.92 78.0209 15.6 74.1409 15.52C72.4609 15.48 70.5409 18.52 69.0209 21.6L70.9009 15.96C70.9809 15.76 70.8209 15.52 70.5809 15.52H68.9809C68.7009 15.52 68.4609 15.72 68.3809 15.96C66.3809 21.92 64.2209 28.44 63.5809 30.44C63.5009 30.72 63.7009 31 64.0209 31H65.5009C65.7409 31 65.9409 30.88 65.9809 30.64L66.0209 30.52V30.56C66.0209 30.56 71.6209 16.48 73.8609 16.68C75.0209 16.76 73.7009 20.52 73.7009 20.52C73.1809 22.16 72.6209 23.92 72.1409 25.56C71.5409 27.56 71.7809 29.32 72.4209 30.08C73.9009 31.96 76.3809 30.4 76.3809 30.4C77.6209 29.8 78.9809 28.32 80.5009 25.96C82.1809 23.32 83.4209 20.48 83.4609 20.48C83.5409 20.24 83.4609 20 83.2209 19.88ZM91.7334 19.88C91.4934 19.8 91.2534 19.88 91.1334 20.12C91.1334 20.16 89.8934 22.92 88.2534 25.52C86.3734 28.4 84.7334 29.88 83.5334 29.8C82.6134 29.72 82.1734 28.6 82.9734 25.92C83.7334 23.36 85.7334 17.56 86.2934 15.96C86.3734 15.72 86.2134 15.52 86.0134 15.52H84.4534C84.0934 15.52 83.8134 15.72 83.6934 16.04C82.8934 18.44 81.6134 22.16 80.6134 25.56C80.0534 27.56 80.2934 29.32 80.8934 30.08C82.4134 31.96 84.8534 30.4 84.8534 30.4C86.0934 29.8 87.4934 28.32 88.9734 25.96C90.6534 23.32 91.9334 20.48 91.9334 20.48C92.0534 20.24 91.9334 20 91.7334 19.88ZM85.8534 14.68C86.5734 14.68 87.1334 14.12 87.1334 13.44C87.1334 12.72 86.5734 12.16 85.8534 12.16C85.1734 12.16 84.6134 12.72 84.6134 13.44C84.6134 14.12 85.1734 14.68 85.8534 14.68ZM101.566 10.32H96.7663C97.5263 8.08 98.1663 6.24 98.4463 5.36C98.5263 5.12 98.3663 4.84 98.0863 4.84H96.6063C96.2862 4.84 96.0063 5.04 95.9263 5.32C95.2863 7.16 94.7263 8.84 94.2463 10.32H88.4462C88.2062 10.32 88.0062 10.52 88.0062 10.76C88.0062 11 88.2062 11.2 88.4462 11.2H93.9263C91.2063 19.36 90.1262 22.6 89.2462 25.56C88.6462 27.56 88.8862 29.32 89.5262 30.08C91.0063 31.96 93.4863 30.4 93.4863 30.4C94.7263 29.8 96.0863 28.32 97.6063 25.96C99.2863 23.32 100.526 20.48 100.566 20.48C100.646 20.24 100.566 20 100.326 19.88C100.086 19.8 99.8463 19.88 99.7663 20.12C99.7263 20.16 98.4863 22.92 96.8463 25.52C95.0063 28.4 93.3663 29.88 92.1263 29.8C91.2063 29.72 90.7663 28.6 91.5663 25.92C92.1263 24.12 94.6063 16.72 96.4863 11.2H101.566C101.806 11.2 102.006 11 102.006 10.76C102.006 10.52 101.806 10.32 101.566 10.32ZM112.322 19.88C112.122 19.8 111.842 19.88 111.762 20.12C111.722 20.16 110.402 23.12 108.682 25.76C107.442 27.56 105.162 30.64 102.162 29.92C100.282 29.48 100.322 26.88 100.562 25.04C102.842 25.08 106.282 22.84 107.162 18.88C107.882 15.56 105.562 15.52 105.562 15.52C102.042 15.32 99.7619 19.96 99.7619 19.96C99.3219 20.8 98.9219 21.68 98.6419 22.56C98.6419 22.56 96.2419 30 101.642 30.92C105.722 31.88 108.962 26.96 109.282 26.48C111.122 23.72 112.562 20.52 112.562 20.48C112.642 20.24 112.562 20 112.322 19.88ZM105.482 16.4C105.482 16.4 106.842 16.44 106.202 18.84C105.522 21.32 103.002 23.96 100.722 24.12C100.842 23.52 100.962 23.16 100.962 23.16C102.842 16.68 105.482 16.4 105.482 16.4Z" fill="white"/>
</svg>
